<svg width="1004" height="352" viewBox="0 0 1004 352" fill="none" xmlns="http://www.w3.org/2000/svg">
<g clip-path="url(#clip0_518_4409)">
<path d="M395.683 144.408C397.844 133.142 399.212 125.381 399.785 121.124C400.357 116.867 401.267 110.185 402.514 101.08C435.291 93.9124 463.456 90.3288 487.008 90.3288C500.435 90.3288 512.729 91.8367 523.889 94.8528C535.049 97.8688 543.758 102.729 550.017 109.435C556.276 116.145 559.405 125.766 559.405 138.296C559.405 144.66 558.553 158.987 556.849 181.278C555.144 203.569 553.84 232.795 552.935 268.959C541.775 268.737 530.673 268.624 519.628 268.62C508.916 268.62 497.527 268.733 485.462 268.959C487.013 256.452 488.734 230.638 490.626 191.517C486.293 193.561 482.923 195.038 480.516 195.947C478.108 196.856 473.824 198.222 467.661 200.045C461.527 201.863 456.73 203.398 453.268 204.648C450.035 205.777 446.992 207.387 444.241 209.425C442.009 210.995 440.149 213.035 438.789 215.399C437.697 217.505 437.141 219.847 437.171 222.218C437.161 224.104 437.568 225.97 438.365 227.68C439.162 229.39 440.327 230.903 441.779 232.11C444.855 234.847 449.751 236.213 456.467 236.208C459.037 236.193 461.603 235.993 464.144 235.609C467.978 234.929 471.749 233.93 475.417 232.622C472.11 241.382 468.183 254.177 463.639 271.008C454.44 272.547 445.133 273.346 435.806 273.396C421.685 273.396 409.933 271.434 400.55 267.508C391.397 263.777 383.766 257.078 378.885 248.489C373.825 239.739 371.293 230.982 371.288 222.218C371.29 216.861 372.244 211.548 374.104 206.524C376.181 201.07 379.152 195.998 382.893 191.517C386.87 186.628 391.593 182.396 396.889 178.976C402.233 175.513 409.543 172.244 418.821 169.171C428.098 166.097 439.846 163.196 454.063 160.469C459.975 159.334 465.408 158.112 470.362 156.804C473.971 155.939 477.508 154.798 480.942 153.391C482.837 152.565 484.571 151.41 486.062 149.978C487.269 148.819 488.227 147.427 488.878 145.887C489.451 144.448 489.74 142.912 489.73 141.363C489.798 139.364 489.326 137.383 488.366 135.628C487.406 133.873 485.991 132.407 484.271 131.384C480.631 129.051 475.285 127.885 468.232 127.885C448.646 127.865 424.463 133.373 395.683 144.408Z" fill="black"/>
<path d="M577.185 346.884C573.661 319.702 571.27 302.815 570.014 296.225C577.192 299.641 583.542 301.971 589.064 303.217C593.739 304.359 598.524 304.988 603.334 305.093C607.355 305.119 611.356 304.546 615.207 303.39C618.362 302.517 621.341 301.101 624.01 299.205C626.699 297.001 629.081 294.448 631.095 291.615C633.242 288.85 635.158 285.913 636.821 282.834C638.409 279.465 639.669 275.952 640.584 272.343L608.44 175.282L580.926 94.7445C597.897 94.9754 609.8 95.0885 616.637 95.0837C624.614 95.0837 635.495 94.9706 649.279 94.7445C651.445 103.504 655.46 118.63 661.324 140.122C667.188 161.614 671.432 178.45 674.056 190.629C675.539 197.363 676.964 205.892 678.331 216.215L681.942 202.57C683.079 198.929 684.386 194.778 685.864 190.117C687.342 185.456 689.219 179.883 691.497 173.399L702.582 142.373L721.004 94.7517C735.221 94.9826 745.97 95.0957 753.249 95.0909C759.619 95.0909 770.993 94.9778 787.372 94.7517L754.448 169.127L694.898 307.142C691.046 314.867 687.344 321.008 683.791 325.563C680.614 329.532 677.005 333.135 673.031 336.307C669.395 339.145 665.439 341.55 661.245 343.471C655.227 346.193 648.932 348.254 642.469 349.619C634.942 351.207 627.269 352.005 619.576 352C616.047 352 611.377 351.745 605.566 351.235C599.755 350.725 595.056 350.213 591.469 349.698C587.858 349.188 583.097 348.25 577.185 346.884Z" fill="black"/>
<path d="M796.391 268.93C799.665 243.113 802.178 214.598 803.931 183.385C805.683 152.171 806.726 122.625 807.058 94.7445C820.736 94.9754 832.531 95.0885 842.444 95.0837C853.955 95.0837 865.012 94.9706 875.613 94.7445L873.909 117.942C876.97 114.441 880.22 111.11 883.644 107.963C886.775 105.236 890.178 102.835 893.797 100.798C897.883 98.4493 902.203 96.534 906.688 95.0837C911.567 93.5324 916.561 92.3648 921.622 91.5914C935.247 89.5024 949.142 89.9649 962.598 92.9551C970.388 94.7157 976.904 97.217 982.147 100.459C987.278 103.602 991.743 107.717 995.291 112.574C998.731 117.207 1001.12 122.532 1002.3 128.18C1003.44 133.852 1004.01 139.625 1004 145.411C1004 149.74 1003.54 159.064 1002.62 173.384L999.652 235.155C999.075 247.33 998.786 258.588 998.786 268.93C987.299 268.709 976.553 268.596 966.548 268.591C953.015 268.591 940.676 268.704 929.53 268.93C930.56 258.583 931.651 243.19 932.802 222.752C933.952 202.313 934.527 187.955 934.527 179.676C934.527 166.833 932.048 157.879 927.089 152.814C922.13 147.748 915.903 145.228 908.407 145.252C901.792 145.252 895.552 147.416 889.688 151.746C883.824 156.075 879.296 162.359 876.104 170.599C872.912 178.844 870.661 192.404 869.352 211.279C868.042 230.155 867.157 249.374 866.694 268.937C855.323 268.716 844.232 268.603 833.424 268.598C822.043 268.593 809.698 268.704 796.391 268.93Z" fill="black"/>
<path d="M894.707 15.1666C894.728 17.2846 894.33 19.3859 893.537 21.3502C892.8 23.2004 891.694 24.8818 890.288 26.2927C888.55 28.0242 886.451 29.352 884.142 30.1817C881.262 31.1275 878.239 31.5669 875.209 31.4805H868.529V50.1899H861.849V3.17072e-06H875.476C878.047 -0.0577069 880.616 0.184441 883.131 0.721536C885.114 1.17865 886.999 1.98493 888.699 3.1026C890.546 4.31059 892.069 5.95324 893.133 7.88636C894.264 10.1417 894.805 12.6461 894.707 15.1666V15.1666ZM887.753 15.3398C887.79 13.7853 887.479 12.2422 886.843 10.823C886.235 9.5378 885.276 8.44997 884.077 7.68433C882.946 6.96788 881.697 6.45959 880.387 6.18354C878.657 5.84887 876.898 5.69652 875.136 5.72898H868.529V25.7876H874.162C876.377 25.8448 878.59 25.6021 880.74 25.0661C882.288 24.6617 883.706 23.8666 884.857 22.7572C885.836 21.7957 886.599 20.6373 887.096 19.3587C887.547 18.08 887.77 16.7318 887.753 15.3759V15.3398Z" fill="black"/>
<path d="M930.866 50.1898H924.547V46.1781C923.984 46.5605 923.226 47.0945 922.265 47.7799C921.395 48.4143 920.463 48.9606 919.485 49.4106C918.329 49.9672 917.119 50.4025 915.874 50.7094C914.294 51.082 912.673 51.2589 911.05 51.2361C909.453 51.276 907.865 50.998 906.377 50.4183C904.889 49.8385 903.532 48.9686 902.384 47.8593C901.219 46.7584 900.301 45.4233 899.689 43.9421C899.078 42.4609 898.788 40.8672 898.838 39.2658C898.726 36.8228 899.369 34.4044 900.679 32.3391C902.006 30.4911 903.821 29.0494 905.922 28.1759C908.559 27.0786 911.347 26.3853 914.191 26.1195C917.403 25.7684 920.854 25.499 924.547 25.3114V24.3373C924.61 23.0935 924.362 21.8537 923.825 20.7296C923.328 19.7966 922.577 19.0235 921.658 18.5001C920.655 17.9534 919.557 17.6009 918.423 17.4611C917.115 17.2763 915.795 17.1847 914.473 17.1869C912.602 17.2134 910.738 17.4334 908.912 17.8435C906.751 18.3166 904.629 18.9534 902.564 19.7484H902.232V13.3484C903.469 13.0068 905.256 12.6364 907.591 12.2372C909.875 11.8379 912.19 11.6351 914.509 11.6311C916.837 11.5982 919.162 11.8184 921.442 12.2877C923.283 12.6722 925.024 13.4339 926.555 14.5245C927.965 15.5569 929.08 16.9399 929.79 18.5362C930.588 20.4697 930.967 22.55 930.902 24.6404L930.866 50.1898ZM924.547 40.9181V30.4343C922.612 30.5497 920.33 30.7157 917.715 30.9393C915.616 31.0841 913.533 31.4125 911.49 31.9206C909.84 32.3453 908.321 33.1735 907.071 34.3305C906.493 34.922 906.044 35.627 905.753 36.4008C905.462 37.1746 905.335 38.0004 905.381 38.8257C905.381 40.9903 906.038 42.6137 907.338 43.7033C908.638 44.7928 910.638 45.3339 913.31 45.3339C915.418 45.359 917.505 44.9154 919.42 44.0352C921.237 43.1849 922.956 42.1398 924.547 40.9181V40.9181Z" fill="black"/>
<path d="M972.564 12.5403L950.545 64.0722H943.764L950.783 48.3716L935.77 12.5403H942.652L954.206 40.4492L965.884 12.5403H972.564Z" fill="black"/>
<path d="M413.939 69.9238L475.265 19.3948L163.065 49.1292L155.468 128.13L240.316 110.669L60.9942 258.424L61.052 258.489L61.9258 258.576L0 309.603L311.333 281.319L318.931 202.325L232.993 219.57L414.582 69.9454L413.939 69.9238Z" fill="#D7F719"/>
</g>
<defs>
<clipPath id="clip0_518_4409">
<rect width="1004" height="352" fill="white"/>
</clipPath>
</defs>
</svg>
